<svg xmlns="http://www.w3.org/2000/svg" xmlns:xlink="http://www.w3.org/1999/xlink" width="500" zoomAndPan="magnify" viewBox="0 0 375 374.999991" height="500" preserveAspectRatio="xMidYMid meet" version="1.0"><defs><g/><clipPath id="id1"><path d="M 72.734375 37.5 L 286.484375 37.5 L 286.484375 251.25 L 72.734375 251.25 Z M 72.734375 37.5 " clip-rule="nonzero"/></clipPath><clipPath id="id2"><path d="M 88.855469 45.125 L 302.605469 45.125 L 302.605469 258.875 L 88.855469 258.875 Z M 88.855469 45.125 " clip-rule="nonzero"/></clipPath><clipPath id="id3"><path d="M 227.964844 45.125 L 248.214844 45.125 L 248.214844 65.375 L 227.964844 65.375 Z M 227.964844 45.125 " clip-rule="nonzero"/></clipPath></defs><g clip-path="url(#id1)"><path fill="#ffffff" d="M 179.609375 251.25 C 120.699219 251.25 72.734375 203.289062 72.734375 144.375 C 72.734375 85.460938 120.699219 37.5 179.609375 37.5 C 238.523438 37.5 286.484375 85.460938 286.484375 144.375 C 286.484375 203.289062 238.523438 251.25 179.609375 251.25 Z M 179.609375 39.078125 C 121.539062 39.078125 74.316406 86.304688 74.316406 144.375 C 74.316406 202.445312 121.539062 249.671875 179.609375 249.671875 C 237.683594 249.671875 284.90625 202.445312 284.90625 144.375 C 284.90625 86.304688 237.683594 39.078125 179.609375 39.078125 Z M 179.609375 39.078125 " fill-opacity="1" fill-rule="nonzero"/></g><g clip-path="url(#id2)"><path fill="#ffffff" d="M 195.730469 258.875 C 136.820312 258.875 88.855469 210.910156 88.855469 152 C 88.855469 93.085938 136.820312 45.125 195.730469 45.125 C 254.644531 45.125 302.605469 93.085938 302.605469 152 C 302.605469 210.910156 254.644531 258.875 195.730469 258.875 Z M 195.730469 46.703125 C 137.660156 46.703125 90.4375 93.929688 90.4375 152 C 90.4375 210.070312 137.660156 257.292969 195.730469 257.292969 C 253.800781 257.292969 301.027344 210.070312 301.027344 152 C 301.027344 93.929688 253.800781 46.703125 195.730469 46.703125 Z M 195.730469 46.703125 " fill-opacity="1" fill-rule="nonzero"/></g><path stroke-linecap="butt" transform="matrix(0.000000000000000092, -1.50547, 1.5, 0.000000000000000092, 188.245012, 176.33618)" fill="none" stroke-linejoin="miter" d="M 0.000160827 0.000721074 L 42.849102 0.000721074 " stroke="#ffffff" stroke-width="1" stroke-opacity="1" stroke-miterlimit="4"/><g clip-path="url(#id3)"><path fill="#ffffff" d="M 238.089844 45.125 C 232.5 45.125 227.964844 49.65625 227.964844 55.25 C 227.964844 60.839844 232.5 65.375 238.089844 65.375 C 243.683594 65.375 248.214844 60.839844 248.214844 55.25 C 248.214844 49.65625 243.683594 45.125 238.089844 45.125 " fill-opacity="1" fill-rule="nonzero"/></g><g fill="#ffffff" fill-opacity="1"><g transform="translate(138.429722, 166.796137)"><g><path d="M 15.28125 0.535156 C 21.609375 0.535156 27.828125 -3.539062 27.828125 -10.242188 C 27.828125 -16.300781 22.25 -18.660156 16.300781 -21.019531 C 11.742188 -22.894531 6.21875 -24.933594 6.21875 -29.972656 C 6.21875 -34.53125 9.917969 -37.050781 14.261719 -37.050781 C 20.375 -37.050781 24.128906 -33.726562 26.113281 -29.0625 L 26.648438 -29.222656 L 26.433594 -35.441406 C 24.34375 -36.566406 20.855469 -37.90625 15.976562 -37.90625 C 8.097656 -37.90625 2.894531 -33.941406 2.894531 -27.667969 C 2.894531 -21.984375 6.917969 -19.730469 13.242188 -17.210938 C 17.746094 -15.386719 24.34375 -12.921875 24.34375 -7.558594 C 24.34375 -3.21875 20.644531 -0.429688 16.351562 -0.429688 C 8.902344 -0.429688 4.824219 -5.199219 2.734375 -10.832031 L 2.144531 -10.722656 L 2.414062 -3.269531 C 4.933594 -1.449219 9.652344 0.535156 15.28125 0.535156 Z M 15.28125 0.535156 "/></g></g></g><g fill="#ffffff" fill-opacity="1"><g transform="translate(203.819478, 166.796137)"><g><path d="M -0.910156 0 L 5.148438 0 L 5.148438 -0.695312 C 3.324219 -1.074219 3.109375 -2.839844 4.503906 -6.328125 L 7.667969 -14.15625 L 22.789062 -14.15625 L 26.058594 -6.273438 C 27.773438 -2.25 28.203125 -1.179688 26.539062 -0.695312 L 26.539062 0 L 34.851562 0 L 34.851562 -0.695312 C 33.726562 -1.179688 32.4375 -2.25 30.777344 -6.273438 L 17.585938 -37.960938 L 13.566406 -36.136719 L 14.046875 -35.011719 C 14.476562 -34.15625 14.53125 -33.457031 14.15625 -32.492188 L 3.59375 -6.328125 C 1.929688 -2.25 0.589844 -1.179688 -0.910156 -0.695312 Z M 7.988281 -14.960938 L 15.121094 -32.597656 L 22.464844 -14.960938 Z M 7.988281 -14.960938 "/></g></g></g></svg>