<svg xmlns="http://www.w3.org/2000/svg" xmlns:xlink="http://www.w3.org/1999/xlink" width="500" zoomAndPan="magnify" viewBox="0 0 375 374.999991" height="500" preserveAspectRatio="xMidYMid meet" version="1.0"><defs><clipPath id="id1"><path d="M 72.734375 37.5 L 286.484375 37.5 L 286.484375 251.25 L 72.734375 251.25 Z M 72.734375 37.5 " clip-rule="nonzero"/></clipPath><clipPath id="id2"><path d="M 88.855469 45.125 L 302.605469 45.125 L 302.605469 258.875 L 88.855469 258.875 Z M 88.855469 45.125 " clip-rule="nonzero"/></clipPath><clipPath id="id3"><path d="M 227.964844 45.125 L 248.214844 45.125 L 248.214844 65.375 L 227.964844 65.375 Z M 227.964844 45.125 " clip-rule="nonzero"/></clipPath></defs><g clip-path="url(#id1)"><path fill="#64ffda" d="M 179.609375 251.25 C 120.699219 251.25 72.734375 203.289062 72.734375 144.375 C 72.734375 85.460938 120.699219 37.5 179.609375 37.5 C 238.523438 37.5 286.484375 85.460938 286.484375 144.375 C 286.484375 203.289062 238.523438 251.25 179.609375 251.25 Z M 179.609375 39.078125 C 121.539062 39.078125 74.316406 86.304688 74.316406 144.375 C 74.316406 202.445312 121.539062 249.671875 179.609375 249.671875 C 237.683594 249.671875 284.90625 202.445312 284.90625 144.375 C 284.90625 86.304688 237.683594 39.078125 179.609375 39.078125 Z M 179.609375 39.078125 " fill-opacity="1" fill-rule="nonzero"/></g><g clip-path="url(#id2)"><path fill="#64ffda" d="M 195.730469 258.875 C 136.820312 258.875 88.855469 210.910156 88.855469 152 C 88.855469 93.085938 136.820312 45.125 195.730469 45.125 C 254.644531 45.125 302.605469 93.085938 302.605469 152 C 302.605469 210.910156 254.644531 258.875 195.730469 258.875 Z M 195.730469 46.703125 C 137.660156 46.703125 90.4375 93.929688 90.4375 152 C 90.4375 210.070312 137.660156 257.292969 195.730469 257.292969 C 253.800781 257.292969 301.027344 210.070312 301.027344 152 C 301.027344 93.929688 253.800781 46.703125 195.730469 46.703125 Z M 195.730469 46.703125 " fill-opacity="1" fill-rule="nonzero"/></g><g clip-path="url(#id3)"><path fill="#64ffda" d="M 238.089844 45.125 C 232.5 45.125 227.964844 49.65625 227.964844 55.25 C 227.964844 60.839844 232.5 65.375 238.089844 65.375 C 243.683594 65.375 248.214844 60.839844 248.214844 55.25 C 248.214844 49.65625 243.683594 45.125 238.089844 45.125 " fill-opacity="1" fill-rule="nonzero"/></g></svg>