<svg xmlns="http://www.w3.org/2000/svg" xmlns:xlink="http://www.w3.org/1999/xlink" width="500" zoomAndPan="magnify" viewBox="0 0 375 374.999991" height="500" preserveAspectRatio="xMidYMid meet" version="1.0"><defs><g/><clipPath id="id1"><path d="M 72.734375 37.5 L 286.484375 37.5 L 286.484375 251.25 L 72.734375 251.25 Z M 72.734375 37.5 " clip-rule="nonzero"/></clipPath><clipPath id="id2"><path d="M 88.855469 45.125 L 302.605469 45.125 L 302.605469 258.875 L 88.855469 258.875 Z M 88.855469 45.125 " clip-rule="nonzero"/></clipPath><clipPath id="id3"><path d="M 227.964844 45.125 L 248.214844 45.125 L 248.214844 65.375 L 227.964844 65.375 Z M 227.964844 45.125 " clip-rule="nonzero"/></clipPath></defs><g clip-path="url(#id1)"><path fill="#000000" d="M 179.609375 251.25 C 120.699219 251.25 72.734375 203.289062 72.734375 144.375 C 72.734375 85.460938 120.699219 37.5 179.609375 37.5 C 238.523438 37.5 286.484375 85.460938 286.484375 144.375 C 286.484375 203.289062 238.523438 251.25 179.609375 251.25 Z M 179.609375 39.078125 C 121.539062 39.078125 74.316406 86.304688 74.316406 144.375 C 74.316406 202.445312 121.539062 249.671875 179.609375 249.671875 C 237.683594 249.671875 284.90625 202.445312 284.90625 144.375 C 284.90625 86.304688 237.683594 39.078125 179.609375 39.078125 Z M 179.609375 39.078125 " fill-opacity="1" fill-rule="nonzero"/></g><g clip-path="url(#id2)"><path fill="#000000" d="M 195.730469 258.875 C 136.820312 258.875 88.855469 210.910156 88.855469 152 C 88.855469 93.085938 136.820312 45.125 195.730469 45.125 C 254.644531 45.125 302.605469 93.085938 302.605469 152 C 302.605469 210.910156 254.644531 258.875 195.730469 258.875 Z M 195.730469 46.703125 C 137.660156 46.703125 90.4375 93.929688 90.4375 152 C 90.4375 210.070312 137.660156 257.292969 195.730469 257.292969 C 253.800781 257.292969 301.027344 210.070312 301.027344 152 C 301.027344 93.929688 253.800781 46.703125 195.730469 46.703125 Z M 195.730469 46.703125 " fill-opacity="1" fill-rule="nonzero"/></g><path stroke-linecap="butt" transform="matrix(0.000000000000000092, -1.50547, 1.5, 0.000000000000000092, 188.245012, 176.33618)" fill="none" stroke-linejoin="miter" d="M 0.000160827 0.000721074 L 42.849102 0.000721074 " stroke="#000000" stroke-width="1" stroke-opacity="1" stroke-miterlimit="4"/><g clip-path="url(#id3)"><path fill="#000000" d="M 238.089844 45.125 C 232.5 45.125 227.964844 49.65625 227.964844 55.25 C 227.964844 60.839844 232.5 65.375 238.089844 65.375 C 243.683594 65.375 248.214844 60.839844 248.214844 55.25 C 248.214844 49.65625 243.683594 45.125 238.089844 45.125 " fill-opacity="1" fill-rule="nonzero"/></g><g fill="#000000" fill-opacity="1"><g transform="translate(138.429722, 166.796137)"><g><path d="M 15.28125 0.535156 C 21.609375 0.535156 27.828125 -3.539062 27.828125 -10.242188 C 27.828125 -16.300781 22.25 -18.660156 16.300781 -21.019531 C 11.742188 -22.894531 6.21875 -24.933594 6.21875 -29.972656 C 6.21875 -34.53125 9.917969 -37.050781 14.261719 -37.050781 C 20.375 -37.050781 24.128906 -33.726562 26.113281 -29.0625 L 26.648438 -29.222656 L 26.433594 -35.441406 C 24.34375 -36.566406 20.855469 -37.90625 15.976562 -37.90625 C 8.097656 -37.90625 2.894531 -33.941406 2.894531 -27.667969 C 2.894531 -21.984375 6.917969 -19.730469 13.242188 -17.210938 C 17.746094 -15.386719 24.34375 -12.921875 24.34375 -7.558594 C 24.34375 -3.21875 20.644531 -0.429688 16.351562 -0.429688 C 8.902344 -0.429688 4.824219 -5.199219 2.734375 -10.832031 L 2.144531 -10.722656 L 2.414062 -3.269531 C 4.933594 -1.449219 9.652344 0.535156 15.28125 0.535156 Z M 15.28125 0.535156 "/></g></g></g><g fill="#000000" fill-opacity="1"><g transform="translate(203.819478, 166.796137)"><g><path d="M -0.910156 0 L 5.148438 0 L 5.148438 -0.695312 C 3.324219 -1.074219 3.109375 -2.839844 4.503906 -6.328125 L 7.667969 -14.15625 L 22.789062 -14.15625 L 26.058594 -6.273438 C 27.773438 -2.25 28.203125 -1.179688 26.539062 -0.695312 L 26.539062 0 L 34.851562 0 L 34.851562 -0.695312 C 33.726562 -1.179688 32.4375 -2.25 30.777344 -6.273438 L 17.585938 -37.960938 L 13.566406 -36.136719 L 14.046875 -35.011719 C 14.476562 -34.15625 14.53125 -33.457031 14.15625 -32.492188 L 3.59375 -6.328125 C 1.929688 -2.25 0.589844 -1.179688 -0.910156 -0.695312 Z M 7.988281 -14.960938 L 15.121094 -32.597656 L 22.464844 -14.960938 Z M 7.988281 -14.960938 "/></g></g></g><g fill="#000000" fill-opacity="1"><g transform="translate(99.042416, 286.668672)"><g><path d="M 0.816406 0 L 3.40625 0 L 3.40625 -0.207031 C 2.910156 -0.351562 2.765625 -0.71875 2.765625 -2.03125 L 2.765625 -6 L 4.671875 -6 C 6.496094 -6 6.941406 -5.613281 7.152344 -4.894531 L 7.34375 -4.894531 L 7.34375 -7.328125 L 7.152344 -7.328125 C 6.941406 -6.621094 6.496094 -6.238281 4.671875 -6.253906 L 2.765625 -6.253906 L 2.765625 -10.941406 L 5.597656 -10.941406 C 7.101562 -10.941406 7.773438 -10.542969 8.320312 -9.46875 L 8.496094 -9.519531 L 8.351562 -11.199219 L 0.816406 -11.199219 L 0.816406 -10.992188 C 1.296875 -10.847656 1.457031 -10.476562 1.457031 -9.167969 L 1.457031 -2.03125 C 1.457031 -0.71875 1.296875 -0.351562 0.816406 -0.207031 Z M 0.816406 0 "/></g></g></g><g fill="#000000" fill-opacity="1"><g transform="translate(107.984268, 286.668672)"><g><path d="M 8.957031 0.113281 C 9.277344 0.113281 9.695312 0.078125 9.933594 0 L 9.933594 -0.191406 C 9.855469 -0.175781 9.773438 -0.175781 9.679688 -0.175781 C 9.132812 -0.175781 8.816406 -0.703125 8.046875 -2.625 C 7.277344 -4.589844 6.976562 -5.566406 5.007812 -5.824219 C 7.085938 -6.0625 8.175781 -7.199219 8.175781 -8.703125 C 8.175781 -10.125 7.214844 -11.199219 3.96875 -11.199219 L 0.816406 -11.199219 L 0.816406 -10.992188 C 1.3125 -10.847656 1.457031 -10.476562 1.457031 -9.167969 L 1.457031 -2.03125 C 1.457031 -0.71875 1.3125 -0.351562 0.816406 -0.207031 L 0.816406 0 L 3.40625 0 L 3.40625 -0.207031 C 2.910156 -0.351562 2.765625 -0.71875 2.765625 -2.03125 L 2.765625 -5.773438 L 3.792969 -5.773438 C 5.710938 -5.773438 5.839844 -4.65625 6.765625 -2.449219 C 7.472656 -0.785156 7.726562 0.113281 8.957031 0.113281 Z M 2.765625 -6.015625 L 2.765625 -10.925781 C 3.023438 -10.941406 3.28125 -10.957031 3.519531 -10.957031 C 5.886719 -10.957031 6.816406 -9.757812 6.816406 -8.335938 C 6.816406 -6.976562 5.949219 -6.015625 4.113281 -6.015625 Z M 2.765625 -6.015625 "/></g></g></g><g fill="#000000" fill-opacity="1"><g transform="translate(117.773921, 286.668672)"><g><path d="M 6.527344 0.160156 C 9.214844 0.160156 12.191406 -1.601562 12.191406 -5.550781 C 12.191406 -9.46875 9.230469 -11.328125 6.527344 -11.328125 C 3.136719 -11.328125 0.832031 -8.894531 0.832031 -5.613281 C 0.832031 -1.648438 3.808594 0.160156 6.527344 0.160156 Z M 2.113281 -6.542969 C 2.015625 -9.152344 3.441406 -10.957031 5.871094 -10.957031 C 8.734375 -10.957031 10.832031 -7.839844 10.941406 -4.496094 C 11.023438 -2.09375 9.757812 -0.238281 7.199219 -0.238281 C 4.335938 -0.238281 2.222656 -3.328125 2.113281 -6.542969 Z M 2.113281 -6.542969 "/></g></g></g><g fill="#000000" fill-opacity="1"><g transform="translate(130.778792, 286.668672)"><g><path d="M 9.261719 0.128906 L 9.46875 0.128906 L 9.46875 -9.167969 C 9.46875 -10.476562 9.613281 -10.847656 10.109375 -10.992188 L 10.109375 -11.199219 L 8.09375 -11.199219 L 8.09375 -10.992188 C 8.816406 -10.796875 9.199219 -10.351562 9.199219 -8.527344 L 9.199219 -2.144531 L 2.207031 -11.199219 L 0.640625 -11.199219 L 0.640625 -10.992188 C 1.28125 -10.847656 1.472656 -10.476562 1.472656 -9.167969 L 1.472656 -2.03125 C 1.472656 -0.71875 1.3125 -0.351562 0.832031 -0.207031 L 0.832031 0 L 2.832031 0 L 2.832031 -0.207031 C 2.113281 -0.398438 1.726562 -0.847656 1.726562 -2.671875 L 1.726562 -9.679688 Z M 9.261719 0.128906 "/></g></g></g><g fill="#000000" fill-opacity="1"><g transform="translate(141.528215, 286.668672)"><g><path d="M 3.183594 0 L 5.792969 0 L 5.792969 -0.207031 C 5.296875 -0.351562 5.152344 -0.71875 5.152344 -2.03125 L 5.152344 -10.941406 L 5.902344 -10.941406 C 7.34375 -10.941406 7.964844 -10.558594 8.511719 -9.40625 L 8.6875 -9.4375 L 8.589844 -11.199219 L 0.351562 -11.199219 L 0.257812 -9.4375 L 0.433594 -9.40625 C 0.976562 -10.558594 1.601562 -10.941406 3.039062 -10.941406 L 3.824219 -10.941406 L 3.824219 -2.03125 C 3.824219 -0.71875 3.679688 -0.351562 3.183594 -0.207031 Z M 3.183594 0 "/></g></g></g><g fill="#000000" fill-opacity="1"><g transform="translate(150.486066, 286.668672)"><g><path d="M 0.816406 0 L 8.703125 0 L 8.832031 -2.128906 L 8.65625 -2.160156 C 8.078125 -0.671875 7.101562 -0.238281 5.566406 -0.238281 L 3.488281 -0.238281 C 3.023438 -0.238281 2.765625 -0.496094 2.765625 -0.960938 L 2.765625 -5.871094 L 4.816406 -5.871094 C 6.640625 -5.871094 7.101562 -5.503906 7.292969 -4.785156 L 7.488281 -4.785156 L 7.488281 -7.199219 L 7.292969 -7.199219 C 7.101562 -6.480469 6.640625 -6.109375 4.816406 -6.109375 L 2.765625 -6.109375 L 2.765625 -10.957031 L 5.121094 -10.957031 C 6.75 -10.957031 7.695312 -10.476562 8.253906 -9.070312 L 8.429688 -9.117188 L 8.253906 -11.199219 L 0.816406 -11.199219 L 0.816406 -10.992188 C 1.296875 -10.847656 1.457031 -10.476562 1.457031 -9.167969 L 1.457031 -2.03125 C 1.457031 -0.71875 1.296875 -0.351562 0.816406 -0.207031 Z M 0.816406 0 "/></g></g></g><g fill="#000000" fill-opacity="1"><g transform="translate(159.907803, 286.668672)"><g><path d="M 9.261719 0.128906 L 9.46875 0.128906 L 9.46875 -9.167969 C 9.46875 -10.476562 9.613281 -10.847656 10.109375 -10.992188 L 10.109375 -11.199219 L 8.09375 -11.199219 L 8.09375 -10.992188 C 8.816406 -10.796875 9.199219 -10.351562 9.199219 -8.527344 L 9.199219 -2.144531 L 2.207031 -11.199219 L 0.640625 -11.199219 L 0.640625 -10.992188 C 1.28125 -10.847656 1.472656 -10.476562 1.472656 -9.167969 L 1.472656 -2.03125 C 1.472656 -0.71875 1.3125 -0.351562 0.832031 -0.207031 L 0.832031 0 L 2.832031 0 L 2.832031 -0.207031 C 2.113281 -0.398438 1.726562 -0.847656 1.726562 -2.671875 L 1.726562 -9.679688 Z M 9.261719 0.128906 "/></g></g></g><g fill="#000000" fill-opacity="1"><g transform="translate(170.657226, 286.668672)"><g><path d="M 0.816406 0 L 5.007812 0 C 8.527344 0 10.796875 -2.429688 10.78125 -5.808594 C 10.765625 -8.398438 9.039062 -11.199219 4.640625 -11.199219 L 0.816406 -11.199219 L 0.816406 -10.992188 C 1.296875 -10.847656 1.457031 -10.476562 1.457031 -9.167969 L 1.457031 -2.03125 C 1.457031 -0.71875 1.296875 -0.351562 0.816406 -0.207031 Z M 2.765625 -1.40625 L 2.765625 -10.957031 L 3.855469 -10.957031 C 7.421875 -10.957031 9.328125 -8.367188 9.328125 -5.167969 C 9.328125 -1.824219 7.773438 -0.238281 4.976562 -0.238281 L 3.808594 -0.238281 C 2.925781 -0.238281 2.765625 -0.65625 2.765625 -1.40625 Z M 2.765625 -1.40625 "/></g></g></g><g fill="#000000" fill-opacity="1"><g transform="translate(182.254439, 286.668672)"><g/></g></g><g fill="#000000" fill-opacity="1"><g transform="translate(185.613635, 286.668672)"><g><path d="M 0.816406 0 L 5.007812 0 C 8.527344 0 10.796875 -2.429688 10.78125 -5.808594 C 10.765625 -8.398438 9.039062 -11.199219 4.640625 -11.199219 L 0.816406 -11.199219 L 0.816406 -10.992188 C 1.296875 -10.847656 1.457031 -10.476562 1.457031 -9.167969 L 1.457031 -2.03125 C 1.457031 -0.71875 1.296875 -0.351562 0.816406 -0.207031 Z M 2.765625 -1.40625 L 2.765625 -10.957031 L 3.855469 -10.957031 C 7.421875 -10.957031 9.328125 -8.367188 9.328125 -5.167969 C 9.328125 -1.824219 7.773438 -0.238281 4.976562 -0.238281 L 3.808594 -0.238281 C 2.925781 -0.238281 2.765625 -0.65625 2.765625 -1.40625 Z M 2.765625 -1.40625 "/></g></g></g><g fill="#000000" fill-opacity="1"><g transform="translate(197.210848, 286.668672)"><g><path d="M 0.816406 0 L 8.703125 0 L 8.832031 -2.128906 L 8.65625 -2.160156 C 8.078125 -0.671875 7.101562 -0.238281 5.566406 -0.238281 L 3.488281 -0.238281 C 3.023438 -0.238281 2.765625 -0.496094 2.765625 -0.960938 L 2.765625 -5.871094 L 4.816406 -5.871094 C 6.640625 -5.871094 7.101562 -5.503906 7.292969 -4.785156 L 7.488281 -4.785156 L 7.488281 -7.199219 L 7.292969 -7.199219 C 7.101562 -6.480469 6.640625 -6.109375 4.816406 -6.109375 L 2.765625 -6.109375 L 2.765625 -10.957031 L 5.121094 -10.957031 C 6.75 -10.957031 7.695312 -10.476562 8.253906 -9.070312 L 8.429688 -9.117188 L 8.253906 -11.199219 L 0.816406 -11.199219 L 0.816406 -10.992188 C 1.296875 -10.847656 1.457031 -10.476562 1.457031 -9.167969 L 1.457031 -2.03125 C 1.457031 -0.71875 1.296875 -0.351562 0.816406 -0.207031 Z M 0.816406 0 "/></g></g></g><g fill="#000000" fill-opacity="1"><g transform="translate(206.632585, 286.668672)"><g><path d="M 1.136719 -9.308594 L 4.878906 0.078125 L 5.328125 0.078125 L 8.957031 -9.308594 C 9.421875 -10.527344 9.824219 -10.847656 10.253906 -10.992188 L 10.253906 -11.199219 L 8.460938 -11.199219 L 8.460938 -10.992188 C 9.007812 -10.878906 9.070312 -10.351562 8.671875 -9.292969 L 5.632812 -1.390625 L 2.542969 -9.308594 C 2.0625 -10.527344 1.953125 -10.847656 2.429688 -10.992188 L 2.429688 -11.199219 L -0.0625 -11.199219 L -0.0625 -10.992188 C 0.273438 -10.847656 0.65625 -10.527344 1.136719 -9.308594 Z M 1.136719 -9.308594 "/></g></g></g><g fill="#000000" fill-opacity="1"><g transform="translate(216.806141, 286.668672)"><g><path d="M 0.816406 0 L 8.703125 0 L 8.832031 -2.128906 L 8.65625 -2.160156 C 8.078125 -0.671875 7.101562 -0.238281 5.566406 -0.238281 L 3.488281 -0.238281 C 3.023438 -0.238281 2.765625 -0.496094 2.765625 -0.960938 L 2.765625 -5.871094 L 4.816406 -5.871094 C 6.640625 -5.871094 7.101562 -5.503906 7.292969 -4.785156 L 7.488281 -4.785156 L 7.488281 -7.199219 L 7.292969 -7.199219 C 7.101562 -6.480469 6.640625 -6.109375 4.816406 -6.109375 L 2.765625 -6.109375 L 2.765625 -10.957031 L 5.121094 -10.957031 C 6.75 -10.957031 7.695312 -10.476562 8.253906 -9.070312 L 8.429688 -9.117188 L 8.253906 -11.199219 L 0.816406 -11.199219 L 0.816406 -10.992188 C 1.296875 -10.847656 1.457031 -10.476562 1.457031 -9.167969 L 1.457031 -2.03125 C 1.457031 -0.71875 1.296875 -0.351562 0.816406 -0.207031 Z M 0.816406 0 "/></g></g></g><g fill="#000000" fill-opacity="1"><g transform="translate(226.227878, 286.668672)"><g><path d="M 0.816406 0 L 8.253906 0 L 8.367188 -1.808594 L 8.191406 -1.839844 C 7.628906 -0.640625 6.925781 -0.257812 5.390625 -0.257812 L 3.488281 -0.257812 C 3.023438 -0.257812 2.765625 -0.511719 2.765625 -0.976562 L 2.765625 -9.167969 C 2.765625 -10.476562 2.910156 -10.847656 3.40625 -10.992188 L 3.40625 -11.199219 L 0.816406 -11.199219 L 0.816406 -10.992188 C 1.296875 -10.847656 1.457031 -10.476562 1.457031 -9.167969 L 1.457031 -2.03125 C 1.457031 -0.71875 1.296875 -0.351562 0.816406 -0.207031 Z M 0.816406 0 "/></g></g></g><g fill="#000000" fill-opacity="1"><g transform="translate(234.913795, 286.668672)"><g><path d="M 6.527344 0.160156 C 9.214844 0.160156 12.191406 -1.601562 12.191406 -5.550781 C 12.191406 -9.46875 9.230469 -11.328125 6.527344 -11.328125 C 3.136719 -11.328125 0.832031 -8.894531 0.832031 -5.613281 C 0.832031 -1.648438 3.808594 0.160156 6.527344 0.160156 Z M 2.113281 -6.542969 C 2.015625 -9.152344 3.441406 -10.957031 5.871094 -10.957031 C 8.734375 -10.957031 10.832031 -7.839844 10.941406 -4.496094 C 11.023438 -2.09375 9.757812 -0.238281 7.199219 -0.238281 C 4.335938 -0.238281 2.222656 -3.328125 2.113281 -6.542969 Z M 2.113281 -6.542969 "/></g></g></g><g fill="#000000" fill-opacity="1"><g transform="translate(247.918665, 286.668672)"><g><path d="M 0.816406 0 L 3.40625 0 L 3.40625 -0.207031 C 2.910156 -0.351562 2.765625 -0.71875 2.765625 -2.03125 L 2.765625 -4.429688 L 3.902344 -4.429688 C 6.878906 -4.429688 8.429688 -5.917969 8.429688 -8.046875 C 8.429688 -9.597656 7.375 -11.199219 4.0625 -11.199219 L 0.816406 -11.199219 L 0.816406 -10.992188 C 1.296875 -10.847656 1.457031 -10.476562 1.457031 -9.167969 L 1.457031 -2.03125 C 1.457031 -0.71875 1.296875 -0.351562 0.816406 -0.207031 Z M 2.765625 -4.671875 L 2.765625 -10.925781 C 2.960938 -10.941406 3.214844 -10.957031 3.441406 -10.957031 C 6.015625 -10.957031 7.023438 -9.390625 7.023438 -7.679688 C 7.023438 -5.792969 5.917969 -4.671875 3.871094 -4.671875 Z M 2.765625 -4.671875 "/></g></g></g><g fill="#000000" fill-opacity="1"><g transform="translate(256.748548, 286.668672)"><g><path d="M 0.816406 0 L 8.703125 0 L 8.832031 -2.128906 L 8.65625 -2.160156 C 8.078125 -0.671875 7.101562 -0.238281 5.566406 -0.238281 L 3.488281 -0.238281 C 3.023438 -0.238281 2.765625 -0.496094 2.765625 -0.960938 L 2.765625 -5.871094 L 4.816406 -5.871094 C 6.640625 -5.871094 7.101562 -5.503906 7.292969 -4.785156 L 7.488281 -4.785156 L 7.488281 -7.199219 L 7.292969 -7.199219 C 7.101562 -6.480469 6.640625 -6.109375 4.816406 -6.109375 L 2.765625 -6.109375 L 2.765625 -10.957031 L 5.121094 -10.957031 C 6.75 -10.957031 7.695312 -10.476562 8.253906 -9.070312 L 8.429688 -9.117188 L 8.253906 -11.199219 L 0.816406 -11.199219 L 0.816406 -10.992188 C 1.296875 -10.847656 1.457031 -10.476562 1.457031 -9.167969 L 1.457031 -2.03125 C 1.457031 -0.71875 1.296875 -0.351562 0.816406 -0.207031 Z M 0.816406 0 "/></g></g></g><g fill="#000000" fill-opacity="1"><g transform="translate(266.170285, 286.668672)"><g><path d="M 8.957031 0.113281 C 9.277344 0.113281 9.695312 0.078125 9.933594 0 L 9.933594 -0.191406 C 9.855469 -0.175781 9.773438 -0.175781 9.679688 -0.175781 C 9.132812 -0.175781 8.816406 -0.703125 8.046875 -2.625 C 7.277344 -4.589844 6.976562 -5.566406 5.007812 -5.824219 C 7.085938 -6.0625 8.175781 -7.199219 8.175781 -8.703125 C 8.175781 -10.125 7.214844 -11.199219 3.96875 -11.199219 L 0.816406 -11.199219 L 0.816406 -10.992188 C 1.3125 -10.847656 1.457031 -10.476562 1.457031 -9.167969 L 1.457031 -2.03125 C 1.457031 -0.71875 1.3125 -0.351562 0.816406 -0.207031 L 0.816406 0 L 3.40625 0 L 3.40625 -0.207031 C 2.910156 -0.351562 2.765625 -0.71875 2.765625 -2.03125 L 2.765625 -5.773438 L 3.792969 -5.773438 C 5.710938 -5.773438 5.839844 -4.65625 6.765625 -2.449219 C 7.472656 -0.785156 7.726562 0.113281 8.957031 0.113281 Z M 2.765625 -6.015625 L 2.765625 -10.925781 C 3.023438 -10.941406 3.28125 -10.957031 3.519531 -10.957031 C 5.886719 -10.957031 6.816406 -9.757812 6.816406 -8.335938 C 6.816406 -6.976562 5.949219 -6.015625 4.113281 -6.015625 Z M 2.765625 -6.015625 "/></g></g></g></svg>