<?xml version="1.0" encoding="UTF-8" standalone="no"?>
<!DOCTYPE svg PUBLIC "-//W3C//DTD SVG 1.1//EN" "http://www.w3.org/Graphics/SVG/1.1/DTD/svg11.dtd">
<svg width="100%" height="100%" viewBox="0 0 500 500" version="1.1" xmlns="http://www.w3.org/2000/svg" xmlns:xlink="http://www.w3.org/1999/xlink" xml:space="preserve" xmlns:serif="http://www.serif.com/" style="fill-rule:evenodd;clip-rule:evenodd;">
    <g>
        <g transform="matrix(9.2e-17,-1.50547,1.5,9.2e-17,251.819,284.718)">
            <path d="M0,0.001L57.132,0.001" style="fill:none;fill-rule:nonzero;stroke:rgb(100,255,218);stroke-width:1.33px;"/>
        </g>
        <g transform="matrix(1,0,0,1,185.398,271.998)">
            <g>
                <g>
                    <path d="M20.375,0.714C28.813,0.714 37.104,-4.719 37.104,-13.656C37.104,-21.734 29.667,-24.88 21.734,-28.026C15.656,-30.526 8.292,-33.245 8.292,-39.964C8.292,-46.042 13.224,-49.401 19.016,-49.401C27.167,-49.401 32.172,-44.969 34.818,-38.75L35.531,-38.964L35.245,-47.255C32.458,-48.755 27.807,-50.542 21.302,-50.542C10.797,-50.542 3.859,-45.255 3.859,-36.891C3.859,-29.312 9.224,-26.307 17.656,-22.948C23.661,-20.516 32.458,-17.229 32.458,-10.078C32.458,-4.292 27.526,-0.573 21.802,-0.573C11.87,-0.573 6.432,-6.932 3.646,-14.443L2.859,-14.297L3.219,-4.359C6.578,-1.932 12.87,0.714 20.375,0.714Z" style="fill:rgb(100,255,218);fill-rule:nonzero;stroke:rgb(100,255,218);stroke-width:2px;stroke-linejoin:round;stroke-miterlimit:2;"/>
                </g>
            </g>
        </g>
        <g transform="matrix(1,0,0,1,272.585,271.998)">
            <g>
                <g>
                    <path d="M-1.214,0L6.865,0L6.865,-0.927C4.432,-1.432 4.146,-3.786 6.005,-8.437L10.224,-18.875L30.385,-18.875L34.745,-8.365C37.031,-3 37.604,-1.573 35.385,-0.927L35.385,0L46.469,0L46.469,-0.927C44.969,-1.573 43.25,-3 41.036,-8.365L23.448,-50.615L18.089,-48.182L18.729,-46.682C19.302,-45.542 19.375,-44.609 18.875,-43.323L4.792,-8.437C2.573,-3 0.786,-1.573 -1.214,-0.927L-1.214,0ZM10.651,-19.948L20.161,-43.464L29.953,-19.948L10.651,-19.948Z" style="fill:rgb(100,255,218);fill-rule:nonzero;stroke:rgb(100,255,218);stroke-width:2px;stroke-linejoin:round;stroke-miterlimit:2;"/>
                </g>
            </g>
        </g>
    </g>
    <g>
        <g transform="matrix(1,0,0,1,-3.17448,46.6033)">
            <path d="M317.453,60.167C310,60.167 303.953,66.208 303.953,73.667C303.953,81.12 310,87.167 317.453,87.167C324.911,87.167 330.953,81.12 330.953,73.667C330.953,66.208 324.911,60.167 317.453,60.167" style="fill:rgb(100,255,218);fill-rule:nonzero;stroke:rgb(100,255,218);stroke-width:5px;stroke-linejoin:round;stroke-miterlimit:2;"/>
        </g>
        <g transform="matrix(1.20211,0,0,1.24187,-168.581,-32.5792)">
            <circle cx="357.146" cy="232.291" r="117.666" style="fill:rgb(235,235,235);fill-opacity:0;stroke:rgb(100,255,218);stroke-width:4.09px;stroke-linecap:round;stroke-linejoin:round;stroke-miterlimit:1.5;"/>
        </g>
        <g transform="matrix(1.20211,0,0,1.24187,-190.075,-44.3726)">
            <circle cx="357.146" cy="232.291" r="117.666" style="fill:rgb(235,235,235);fill-opacity:0;stroke:rgb(100,255,218);stroke-width:4.09px;stroke-linecap:round;stroke-linejoin:round;stroke-miterlimit:1.5;"/>
        </g>
    </g>
</svg>
